PathFileType	4	(X/Y/Z)	/Users/niels/Desktop/University/Third Semester/Perception and Action/Exam/Gymnastics Motion Tracking/Code for Gym Tracking/Analyzed Data/Start Salto/stsalto_bad_id15_1_Sports2D/stsalto_bad_id15_1_Sports2D_px_person00.trc
DataRate	CameraRate	NumFrames	NumMarkers	Units	OrigDataRate	OrigDataStartFrame	OrigNumFrames
29.85576923076923	29.85576923076923	8	22	m	29.85576923076923	52	208
Frame#	Time	Hip			RHip			RKnee			RAnkle			RBigToe			RSmallToe			RHeel			LHip			LKnee			LAnkle			LBigToe			LSmallToe			LHeel			Neck			Head			Nose			RShoulder			RElbow			RWrist			LShoulder			LElbow			LWrist		
		X1	Y1	Z1	X2	Y2	Z2	X3	Y3	Z3	X4	Y4	Z4	X5	Y5	Z5	X6	Y6	Z6	X7	Y7	Z7	X8	Y8	Z8	X9	Y9	Z9	X10	Y10	Z10	X11	Y11	Z11	X12	Y12	Z12	X13	Y13	Z13	X14	Y14	Z14	X15	Y15	Z15	X16	Y16	Z16	X17	Y17	Z17	X18	Y18	Z18	X19	Y19	Z19	X20	Y20	Z20	X21	Y21	Z21	X22	Y22	Z22
52	1.7417069243156198	0.8674766025181854	-0.3704675366417986	0.0	0.8585073709488045	-0.3725761120863423	0.0	0.8215594071837937	-0.5052676500535506	0.0	0.7301827719997142	-0.43142823474466935	0.0	0.676014063095161	-0.4532842259872074	0.0	0.6828938817947939	-0.44541027494389923	0.0	0.7216966387759478	-0.4144499303002749	0.0	0.8636054941772907	-0.37617879218290357	0.0	0.8245030592402816	-0.49424399351337367	0.0	0.7336477420956882	-0.4327884147948329	0.0	0.6811681627341661	-0.45376128748805383	0.0	0.6880115304915588	-0.45702658812491037	0.0	0.7265797054147963	-0.40947111541902975	0.0	0.956778791565054	-0.4929395761702906	0.0	0.9384202724772912	-0.5728624276115227	0.0	0.9128033875744168	-0.5335147258576063	0.0	0.9646073457766946	-0.47431241131989194	0.0	0.8748647197577012	-0.4993884224787356	0.0	0.8651101392800937	-0.5789083497612458	0.0	0.9662852149476063	-0.47827586375528697	0.0	0.8845853663498423	-0.5091192360382386	0.0	0.872096800721091	-0.5754199797859317	0.0
53	1.7752012882447665	0.8752614675887276	-0.36800565238712	0.0	0.8668789618240985	-0.36940592183779547	0.0	0.8258246236683464	-0.5009343533182538	0.0	0.7406361689266101	-0.42129148071741074	0.0	0.6861270885556169	-0.4377291325372015	0.0	0.694369501593453	-0.43148012559379834	0.0	0.7333665503245456	-0.4035103286500254	0.0	0.8713506819171507	-0.3739053960671325	0.0	0.8288670129943887	-0.49180163228222756	0.0	0.742277065814858	-0.4227889982369005	0.0	0.6911508171830973	-0.4376965482768852	0.0	0.6959844303893773	-0.4431023356082961	0.0	0.7355148181434541	-0.39826938751379526	0.0	0.9566549160547719	-0.49510947500692104	0.0	0.9366588249862982	-0.573131738801739	0.0	0.9105822093548908	-0.5328282140414847	0.0	0.9671507198306509	-0.47669990518850963	0.0	0.8774416285236687	-0.4973754237145498	0.0	0.8649485671120914	-0.5772071845398729	0.0	0.969172975077405	-0.4808001649006527	0.0	0.8813583221280615	-0.5038511641739049	0.0	0.8732225626129052	-0.5736498534144322	0.0
54	1.808695652173913	0.8830775370618523	-0.3658653977886786	0.0	0.8753521702705432	-0.3665348245804179	0.0	0.8297981433042505	-0.4968850493378212	0.0	0.7513018474143078	-0.41184627299786547	0.0	0.6968558065649265	-0.4232134267351796	0.0	0.7058267053141742	-0.41808151089899537	0.0	0.7453839662841594	-0.39321401985968213	0.0	0.8795205697594479	-0.37225568843649065	0.0	0.8335490471045045	-0.48986462173246514	0.0	0.7517428767368712	-0.41429358040951725	0.0	0.7014464564263954	-0.42261884713136677	0.0	0.7047997062206223	-0.42971696202297155	0.0	0.7455461100452382	-0.38854258191028823	0.0	0.957295205638007	-0.49713193093589386	0.0	0.9349681689219365	-0.573634572896994	0.0	0.9096534391825069	-0.5326349789638218	0.0	0.9694860355888149	-0.4788832030651911	0.0	0.8797816242657458	-0.49558579965194893	0.0	0.865710444410441	-0.5755581826262266	0.0	0.9723374493101256	-0.48323464432227303	0.0	0.8802726923346373	-0.4997950818181595	0.0	0.874682119163175	-0.5709862915453534	0.0
55	1.8421900161030595	0.891080014630295	-0.36397116053156303	0.0	0.8839653356132583	-0.3640652689029373	0.0	0.8335630220816451	-0.49307950974594	0.0	0.76240616553365	-0.4029379020807618	0.0	0.7082920477277108	-0.40944314524092573	0.0	0.7175549858585817	-0.4050571523141989	0.0	0.7580449083611546	-0.3839137318061811	0.0	0.8880245385720755	-0.3709998795640051	0.0	0.8385707492227065	-0.4880398277645584	0.0	0.7621669223313202	-0.40694381646959793	0.0	0.7122262603717269	-0.40861227984842763	0.0	0.7145037901569979	-0.4167323383699252	0.0	0.7569566726118531	-0.3802358983938674	0.0	0.9585068104341683	-0.49894748190648813	0.0	0.9333588467018828	-0.5737726032018684	0.0	0.9102591863093374	-0.5326790024037679	0.0	0.971473377541045	-0.4807568178089044	0.0	0.8819166365399577	-0.49409996104325965	0.0	0.8672619199417895	-0.5740175754502641	0.0	0.9753972359529743	-0.48545885715997794	0.0	0.8812274908286757	-0.4966722906599119	0.0	0.8755528954580005	-0.5664678823851372	0.0
56	1.875684380032206	0.8994584500391826	-0.36221024702349763	0.0	0.8927787890459793	-0.36215088959879616	0.0	0.8373283030553016	-0.4894445690400597	0.0	0.7740643637403797	-0.39428329571243886	0.0	0.7203935227075758	-0.39594744059765974	0.0	0.7297170350564354	-0.39235471353009366	0.0	0.7713806940527139	-0.3755927788167033	0.0	0.8967781204814845	-0.369871388099205	0.0	0.8439466224209913	-0.486041173883393	0.0	0.77342063001103	-0.4000963255508886	0.0	0.7235625187153742	-0.3956829992917696	0.0	0.7249231031231537	-0.40416999725157066	0.0	0.7696257626903579	-0.3728072001056362	0.0	0.960133919699198	-0.5009052996307146	0.0	0.9320563969118099	-0.5731251845735336	0.0	0.912245112305078	-0.533005983401043	0.0	0.972941037681143	-0.48254383963595915	0.0	0.8839105419961809	-0.49298262706092066	0.0	0.8693601588381644	-0.5725136972012126	0.0	0.9781579484322287	-0.48759964778540665	0.0	0.8838534649358976	-0.49399995715606226	0.0	0.8751064293954323	-0.5590249820586014	0.0
57	1.9091787439613526	0.9082670675651852	-0.3605550894066564	0.0	0.9016889875825013	-0.3609676953489764	0.0	0.8413484379098841	-0.4860502649619422	0.0	0.786083397655727	-0.38579150976880433	0.0	0.7327910052519387	-0.38272805471699073	0.0	0.7420680596763202	-0.38031768816274747	0.0	0.7850062425741912	-0.36798956138679745	0.0	0.9056518658575982	-0.3687120571586576	0.0	0.8496410140517572	-0.48380301567145634	0.0	0.7850962122477468	-0.3931785003000188	0.0	0.7352288123700557	-0.3840058369911515	0.0	0.7356398038964773	-0.3923847634896466	0.0	0.7830130834298342	-0.36556163767809446	0.0	0.9620237849528033	-0.5036595279642514	0.0	0.9310358016142016	-0.5715812531702368	0.0	0.9149540291540585	-0.533945362793702	0.0	0.9737995754949342	-0.4847370778082059	0.0	0.885800590412673	-0.4923240683552605	0.0	0.8716959554572012	-0.5711035522115122	0.0	0.9806340562454045	-0.490073616908179	0.0	0.8877276598650485	-0.4914719299521593	0.0	0.8732092467663646	-0.5483911352064608	0.0
58	1.942673107890499	0.917474124999575	-0.35912061874376383	0.0	0.9105310233593185	-0.3605708920512937	0.0	0.8458093945175185	-0.4830583643426158	0.0	0.7981663987404569	-0.37762567435066774	0.0	0.7450891008654176	-0.37045073824711955	0.0	0.7543206126045964	-0.3694461052390339	0.0	0.7984671244267842	-0.36076008752289135	0.0	0.9146085009832051	-0.367521656651895	0.0	0.8555022847208578	-0.48139342753929604	0.0	0.796845017466395	-0.3858120712438031	0.0	0.7469149082851889	-0.37364016278136697	0.0	0.7463209292437719	-0.3815934521460873	0.0	0.7965605740925956	-0.3579605920122485	0.0	0.9638533147265852	-0.5078092548105104	0.0	0.9298507751818395	-0.5694954954412119	0.0	0.917352919614452	-0.5358628932983572	0.0	0.973964835460136	-0.48789644838200996	0.0	0.8876403595922849	-0.4921586758884387	0.0	0.87401364054855	-0.5699772774720644	0.0	0.9828615701485086	-0.4935007114966991	0.0	0.8924529772818144	-0.4891204524092897	0.0	0.8703703075267667	-0.5358414927650871	0.0
59	1.9761674718196456	0.9271468949533923	-0.35814577134287634	0.0	0.9193397870282366	-0.3608299850453874	0.0	0.8507715238470658	-0.4804742294065621	0.0	0.8102037585996281	-0.3700201164025382	0.0	0.757321088808195	-0.3600572319909191	0.0	0.7666171556210886	-0.35996802480323464	0.0	0.8116038394726098	-0.35358923748419224	0.0	0.9238811224959341	-0.36642442465497677	0.0	0.8612897617669102	-0.47879391775322944	0.0	0.8086451890304355	-0.3778248016004704	0.0	0.7585677909510983	-0.3642431155737036	0.0	0.7570618671764461	-0.3714489178274549	0.0	0.8099838756901583	-0.34976292669989056	0.0	0.9651281861013302	-0.5135794870535809	0.0	0.9278652170700518	-0.5675600691749895	0.0	0.9184537797090679	-0.5388193021424857	0.0	0.9732526292708386	-0.49244129662691183	0.0	0.8895537191303562	-0.4924008625486587	0.0	0.8762200198474552	-0.5692226006572506	0.0	0.9847143885566488	-0.49851791435770804	0.0	0.897629555091738	-0.4872941607836283	0.0	0.8675570235150112	-0.5244097207218448	0.0
